<svg fill="currentColor" aria-hidden="true" focusable="false" xmlns="http://www.w3.org/2000/svg" viewBox="0 0 139.59 71.42"><path d="M139.1,41.21c.04-.2.08-.39.12-.59.38-1.87,1.18-5.96-2.15-5.13-3.53.88-7.3,3.49-10.42,5.31-3.81,2.21-7.59,4.5-11.57,6.39-2.63,1.25-5.06,2.39-7.82,3.42-1.68.63-3.13,1.77-4.76,2.51-1.48.67-2.97.57-4.42,1.14-6.5,2.52-11.75,3.88-18.81,3.47-4.83-.28-12.34-1.56-10.83-7.92,1.26-5.31,7.26-9.45,11.89-11.65l1.19-.56c1.12-.53,2.21-1.05,3.28-1.58,5.26-2.59,10.85-5.43,16.36-9,7.51-4.87,13.02-14.16,12.02-20.28-.51-3.14-2.7-5.16-6.68-6.18-12.08-2.92-24.86,6.65-34.64,15.31-4.24,3.73-7.43,6.96-10.04,10.19-1.45,1.79-2.82,3.74-4.15,5.63-.97,1.38-1.94,2.75-2.94,4.08-3.93,5.2-9.06,7.45-14.5,9.82l-1.62.71c-2.86,1.27-5.95,2.57-9.43,3.96-6.66,2.67-13.48,4.4-21.07,6.24-.69.17-1.62.32-2.7.5-1.38.23-3.53.68-4.49,1.76-1.93,2.17-.5,3.89,1.73,4.88,1.06.47,2.14.58,3.23.92,1.37.43,2.6,1.22,4.01,1.53,2.06.46,4.32.48,6.49.36,4.21-.22,8.5-2.43,12.18-4.4,3.71-1.98,7.26-4.15,11.09-5.89.3-.14.66-.32,1.06-.53,1.9-.98,4.18-2.15,6.31-2.15.46,0,.91.06,1.32.17,3.12.83,4.03,4.23,4.77,6.95.23.84.5,1.88.74,2.29,1.53,2.7,4.08,4.85,7.19,6.05,12.51,4.84,26.45,1.66,38.94-1.56,3.23-.83,6.42-1.82,9.68-2.51,3.08-.66,6.42-.38,9.08-2.24,1.96-1.36,3.96-2.89,6.28-3.57,3.19-.94,7.31-1.42,9.34-4.4.87-1.28,1.46-3.18,2.04-4.64.68-1.74,1.18-3.46,1.8-5.21.43-1.23.68-2.38.93-3.61ZM77.49,22.59c1.53-1.87,3.6-3.57,5.33-4.77,2.63-1.83,10.49-4.47,10.35,1.29-.08,3.46-4.96,5.91-7.53,7.34-2.68,1.5-12.93,6.14-9.83-1.17.39-.92.98-1.82,1.69-2.69Z"/></svg>
